<?xml version="1.0" encoding="UTF-8" standalone="no"?>
<!-- Created with Inkscape (http://www.inkscape.org/) -->

<svg
   xmlns:dc="http://purl.org/dc/elements/1.1/"
   xmlns:cc="http://creativecommons.org/ns#"
   xmlns:rdf="http://www.w3.org/1999/02/22-rdf-syntax-ns#"
   xmlns:svg="http://www.w3.org/2000/svg"
   xmlns="http://www.w3.org/2000/svg"
   xmlns:sodipodi="http://sodipodi.sourceforge.net/DTD/sodipodi-0.dtd"
   xmlns:inkscape="http://www.inkscape.org/namespaces/inkscape"
   width="128"
   height="128"
   viewBox="0 0 33.866666 33.866668"
   version="1.1"
   id="svg8"
   inkscape:version="0.92.1 r15371"
   sodipodi:docname="geonetwork_l.svg">
  <defs
     id="defs2" />
  <sodipodi:namedview
     id="base"
     pagecolor="#ffffff"
     bordercolor="#666666"
     borderopacity="1.0"
     inkscape:pageopacity="0.0"
     inkscape:pageshadow="2"
     inkscape:zoom="1.4"
     inkscape:cx="89.013584"
     inkscape:cy="28.834548"
     inkscape:document-units="mm"
     inkscape:current-layer="layer1"
     showgrid="false"
     units="px"
     inkscape:window-width="1920"
     inkscape:window-height="1017"
     inkscape:window-x="-8"
     inkscape:window-y="-8"
     inkscape:window-maximized="1" />
  <metadata
     id="metadata5">
    <rdf:RDF>
      <cc:Work
         rdf:about="">
        <dc:format>image/svg+xml</dc:format>
        <dc:type
           rdf:resource="http://purl.org/dc/dcmitype/StillImage" />
        <dc:title></dc:title>
      </cc:Work>
    </rdf:RDF>
  </metadata>
  <g
     inkscape:label="Livello 1"
     inkscape:groupmode="layer"
     id="layer1"
     transform="translate(0,-263.13332)">
    <path
       style="fill:#c0f5ff;fill-opacity:1;stroke-width:0.14354089"
       d="m 17.371776,263.50058 c -1.846771,-0.004 -3.728686,0.23742 -5.178969,0.71183 -1.49331,0.48847 -1.792861,0.92663 -0.974225,1.42448 0.693879,0.42197 2.273736,0.73874 4.275667,0.85703 0.986844,0.0582 2.084932,0.086 2.440187,0.0614 0.355285,-0.0246 1.194777,-0.0817 1.865483,-0.1276 2.358524,-0.16076 3.876165,-0.69696 3.876165,-1.36925 0,-0.36823 -0.609453,-0.66169 -2.278153,-1.09674 -1.17475,-0.30627 -2.58978,-0.45801 -4.026155,-0.46119 z m -0.312872,0.0801 c 1.243431,-0.0146 2.491462,0.0412 3.172203,0.17297 1.45983,0.28281 2.812772,0.7158 3.180597,1.01769 0.27106,0.22246 0.30625,0.32629 0.181386,0.53604 -0.217103,0.36472 -1.761817,0.85123 -3.290226,1.03619 -1.416846,0.17146 -4.854641,0.1798 -6.100482,0.0149 -1.387678,-0.18369 -2.362939,-0.43123 -2.838579,-0.7205 -1.051864,-0.63968 -0.294781,-1.17717 2.551494,-1.81135 0.661345,-0.14737 1.900177,-0.23152 3.143607,-0.24588 z m -0.446886,4.08727 c -1.820572,-0.006 -3.491758,0.0317 -4.452852,0.11882 -3.3121411,0.30067 -6.5925613,1.04733 -7.7371902,1.76117 -1.1633402,0.72553 -2.65449,3.04587 -3.4960054,5.44026 -0.36494513,1.03839 -0.3729193,1.11829 -0.15615768,1.53745 0.75575388,1.46147 5.60886318,2.61842 12.71486228,3.0309 0.966906,0.0561 2.06383,0.0946 2.618219,0.0945 -0.481185,-0.0256 -1.179535,-0.0593 -2.115826,-0.0987 -7.7158961,-0.32425 -13.27753545,-1.7727 -13.27753545,-3.45816 0,-0.84909 1.44478305,-4.01099 2.28740885,-5.00626 l 0.4202442,-0.49651 0.4202501,0.45332 c 0.5097972,0.54977 1.2205922,0.92394 2.5091663,1.32103 2.13201,0.65703 7.114615,1.34219 7.490757,1.03002 0.09892,-0.0822 0.261977,-0.84368 0.362217,-1.69221 0.265844,-2.25041 0.224955,-2.18871 1.444099,-2.18871 1.712308,0 1.573072,-0.45659 1.573072,5.1571 0,0.85897 -0.0015,1.47152 -0.0059,2.05863 l 0.01172,-0.5411 c 0.04307,-1.89473 0.09156,-3.47134 0.10768,-3.50356 0.01612,-0.0322 1.451186,-0.0189 3.189006,0.0297 3.9361,0.11003 4.724814,0.36482 1.864077,0.60194 -1.835216,0.15211 -1.749716,0.0979 -1.644556,1.04627 0.0501,0.45153 0.13361,1.78978 0.185868,2.97399 l 0.09508,2.15312 0.602464,0.0437 c 0.91478,0.0665 4.742804,-0.36754 6.829126,-0.77434 3.363931,-0.65591 5.415312,-1.65482 5.415312,-2.63672 0,-1.19212 -1.922883,-4.94421 -3.107434,-6.06348 -0.893727,-0.84445 -3.141466,-1.57144 -6.394319,-2.06788 -1.269889,-0.19381 -4.719437,-0.31634 -7.753724,-0.32437 z m 14.514731,2.9953 c 0.354127,0 1.735212,2.51218 2.377687,4.32501 0.368206,1.03902 0.376396,1.11804 0.159513,1.53745 -0.691641,1.3375 -4.802402,2.41633 -11.300474,2.96587 -0.651075,0.0551 -1.131591,0.0369 -1.181973,-0.0447 -0.10431,-0.16875 -0.433136,-5.76015 -0.344004,-5.84928 0.03516,-0.0352 0.768761,-0.132 1.630536,-0.21532 4.251066,-0.4111 7.391126,-1.31162 8.211837,-2.35496 0.157534,-0.20028 0.358566,-0.36418 0.446878,-0.36418 z m -18.194931,2.00957 c 0.941902,0 0.983479,0.0146 0.983479,0.34344 0,0.44887 -0.125831,0.47686 -1.610911,0.35661 -1.447001,-0.1172 -2.121147,-0.24562 -2.121147,-0.40399 0,-0.13991 1.450271,-0.29606 2.748579,-0.29606 z m -12.69552129,5.98666 c -0.0526239,-10e-4 -0.0914619,0.0236 -0.1241907,0.0752 -0.18874729,0.29739 -0.12646149,3.53531 0.09196,4.77553 0.18107053,1.02815 0.25727852,1.19633 0.72695727,1.60642 0.65019402,0.56773 2.46284052,1.2359 4.40771482,1.62493 1.8398961,0.36804 2.0153687,0.43372 1.5430691,0.57781 -0.1973676,0.0602 -0.6359379,0.11603 -0.9747937,0.12394 -0.8208775,0.019 -2.7189587,0.41763 -3.2184582,0.67593 -0.4735376,0.24488 -0.5347598,0.80964 -0.1665316,1.53439 0.8974313,1.76631 3.7161528,4.6286 5.0542156,5.13214 1.8345106,0.69038 5.3237127,1.13838 8.9118697,1.14441 3.184206,0.006 6.493286,0.23058 7.067154,0.48108 0.263896,0.11515 0.505816,0.21473 0.537725,0.22119 0.107094,0.0217 1.942133,-1.02739 2.912584,-1.66501 0.528584,-0.3473 1.005305,-0.7705 1.059174,-0.9403 0.137127,-0.43221 -0.408568,-0.86539 -1.581472,-1.2557 -0.518753,-0.17264 -0.906517,-0.37316 -0.861804,-0.44549 0.04468,-0.0724 0.416654,-0.13273 0.826468,-0.13434 0.852618,-0.003 2.484898,-0.22141 3.328638,-0.44492 0.952564,-0.25232 1.912276,-1.3818 2.929125,-3.44722 1.039454,-2.11178 1.299073,-2.97281 1.04067,-3.45564 -0.969044,-1.81066 -7.98817,-3.12151 -16.744955,-3.12705 -0.204415,-1.3e-4 -0.404023,-0.004 -0.606669,-0.006 0.06215,10e-4 0.113262,0.004 0.176063,0.006 5.293191,0.13976 7.535993,0.28653 10.036083,0.65715 4.006934,0.59403 6.743656,1.58956 7.124608,2.59159 0.158561,0.41702 0.06666,0.80179 -0.543878,2.27703 -0.419175,1.01285 -1.344107,2.63289 -1.816682,3.18229 l -0.333061,0.38716 -0.250637,-0.38268 c -0.339653,-0.51836 -0.945956,-0.87043 -2.254039,-1.30925 -2.665624,-0.89422 -5.18895,-1.20017 -11.34674,-1.3757 -6.75626,-0.19255 -9.9888093,-0.52871 -13.1583809,-1.3684 -1.6799366,-0.44504 -2.4008272,-0.76099 -3.06229609,-1.34176 -0.45102158,-0.39601 -0.54284241,-0.59073 -0.70424636,-1.49205 -0.2008675,-1.12162 -0.2662621,-4.60412 -0.0897185,-4.78086 0.0595242,-0.0596 0.25330096,0.0246 0.43062248,0.18727 0.53420607,0.49004 1.76107447,1.03404 3.16154467,1.40176 2.1444379,0.56311 4.1237845,0.89367 6.9715517,1.10433 -4.9257221,-0.42499 -8.7107034,-1.34017 -10.08739912,-2.53665 -0.19824656,-0.17228 -0.3240942,-0.25439 -0.41184078,-0.25819 z m 16.92268429,0.36166 c -0.03384,0.43075 -0.086,0.56607 -0.16905,0.598 -0.01905,0.007 -0.03897,0.0132 -0.0586,0.0196 l 0.213631,-0.004 z m -14.377635,10.6467 c 0.1061854,0.003 0.4564788,0.12439 0.8452673,0.29634 2.3100905,1.02162 6.1792394,1.59975 12.0111757,1.79454 2.250001,0.0752 4.766734,0.1768 5.592499,0.22595 3.92369,0.23356 6.752021,1.0467 6.752021,1.94119 0,0.32582 -0.883502,0.99856 -2.524308,1.92181 -1.110508,0.62488 -1.489863,0.75351 -1.674838,0.56856 -0.25178,-0.25181 -1.645303,-0.36592 -5.920484,-0.48473 -4.840831,-0.13449 -7.181763,-0.35349 -9.1473663,-0.85621 -1.364007,-0.34885 -1.7291484,-0.53617 -2.7589584,-1.41494 -1.384894,-1.18177 -3.4460127,-3.74533 -3.2050048,-3.98634 0.00483,-0.006 0.014811,-0.006 0.030004,-0.006 z"
       id="path4502-6-5-0"
       inkscape:connector-curvature="0" />
    <path
       inkscape:connector-curvature="0"
       id="path4500-2"
       d="m 23.783266,296.4164 c -0.251795,-0.25181 -1.645289,-0.36587 -5.920485,-0.48469 -4.840819,-0.13449 -7.181925,-0.35368 -9.1475283,-0.85641 -1.3640012,-0.34885 -1.7290811,-0.53608 -2.7588926,-1.41485 -1.3848881,-1.18177 -3.4458764,-3.74527 -3.20487,-3.98627 0.036948,-0.0369 0.4306884,0.0936 0.8750148,0.29012 2.310092,1.02164 6.1794562,1.59972 12.0113981,1.79451 2.250004,0.0752 4.766546,0.17684 5.592311,0.22601 3.923705,0.23354 6.752212,1.0467 6.752212,1.94119 0,0.32583 -0.883473,0.99839 -2.524293,1.92163 -1.110493,0.62486 -1.489922,0.75371 -1.674867,0.56876 z m 7.003947,-5.98726 c -0.339638,-0.51837 -0.945853,-0.87052 -2.253935,-1.30934 -2.665625,-0.89419 -5.18898,-1.20012 -11.34677,-1.37565 -6.756274,-0.19255 -9.9887625,-0.52873 -13.1583296,-1.3684 -1.6799352,-0.44504 -2.4008741,-0.7609 -3.06234304,-1.34169 -0.45102157,-0.39599 -0.54293031,-0.5907 -0.70433865,-1.492 -0.20086311,-1.12164 -0.26609948,-4.60431 -0.0895574,-4.78105 0.0595242,-0.0596 0.25330096,0.0247 0.43062248,0.18739 0.53421191,0.49002 1.76097191,1.03393 3.16143631,1.40167 3.3541362,0.88076 6.2934429,1.19435 12.8069219,1.36636 5.293184,0.13976 7.535956,0.28666 10.036047,0.65728 4.006933,0.59402 6.743524,1.58942 7.124505,2.59142 0.158546,0.41704 0.06666,0.80196 -0.543922,2.27719 -0.419175,1.01286 -1.343903,2.63288 -1.816478,3.18228 l -0.333089,0.38724 z M 13.987182,279.55262 c -7.7158958,-0.32425 -13.27752932,-1.77285 -13.27752932,-3.45831 0,-0.84909 1.44453692,-4.01095 2.28715832,-5.00623 l 0.4203541,-0.4965 0.4203629,0.45331 c 0.5097913,0.54975 1.2203812,0.92389 2.5089553,1.32099 2.1320042,0.65702 7.1147657,1.3421 7.4909077,1.02993 0.09893,-0.0822 0.261869,-0.84352 0.362109,-1.69206 0.265843,-2.25041 0.225145,-2.18873 1.44429,-2.18873 1.71231,0 1.573059,-0.45652 1.573059,5.15717 0,4.29925 -0.02622,4.87003 -0.227036,4.9471 -0.124967,0.0479 -0.270225,0.0769 -0.32298,0.0646 -0.05274,-0.0117 -1.258594,-0.0715 -2.679651,-0.13126 z m 7.194217,-0.10548 c -0.10431,-0.16877 -0.433151,-5.76015 -0.344018,-5.84929 0.03516,-0.0352 0.769009,-0.13214 1.630785,-0.21543 4.251066,-0.41112 7.391023,-1.31158 8.211719,-2.35492 0.157535,-0.20028 0.358684,-0.36416 0.446996,-0.36416 0.354113,0 1.735139,2.51218 2.377614,4.32501 0.368221,1.03901 0.376425,1.11806 0.159527,1.53747 -0.691641,1.3375 -4.802343,2.4164 -11.300416,2.96593 -0.651074,0.0551 -1.131824,0.0369 -1.182207,-0.0447 z m -6.978904,-13.08862 c -1.387676,-0.18369 -2.362927,-0.43122 -2.838567,-0.72047 -1.05187,-0.63968 -0.294798,-1.17714 2.551484,-1.81134 1.322693,-0.29472 4.954315,-0.33662 6.315798,-0.0728 1.459845,0.28281 2.812684,0.71559 3.180509,1.01748 0.27106,0.22245 0.306206,0.32641 0.181356,0.53616 -0.217117,0.36472 -1.761685,0.85109 -3.290094,1.03605 -1.416846,0.17145 -4.854646,0.17991 -6.100486,0.0151 z"
       style="fill:#078aa3;fill-opacity:1;stroke-width:0.14354089" />
  </g>
</svg>
